P2
# Simple placeholder map for Nav2 static-map bringup
20 20
255
255 255 255 255 255 255 255 255 255 255 255 255 255 255 255 255 255 255 255 255
255 0 0 0 0 0 0 0 0 0 0 0 0 0 0 0 0 0 0 255
255 0 255 255 255 255 255 255 255 255 255 255 255 255 255 255 255 255 0 255
255 0 255 255 255 255 255 255 255 255 255 255 255 255 255 255 255 255 0 255
255 0 255 255 255 255 255 255 255 255 255 255 255 255 255 255 255 255 0 255
255 0 255 255 255 255 255 255 255 255 255 255 255 255 255 255 255 255 0 255
255 0 255 255 255 255 255 255 255 255 255 255 255 255 255 255 255 255 0 255
255 0 255 255 255 255 255 255 255 255 255 255 255 255 255 255 255 255 0 255
255 0 255 255 255 255 255 255 255 255 255 255 255 255 255 255 255 255 0 255
255 0 255 255 255 255 255 255 255 255 255 255 255 255 255 255 255 255 0 255
255 0 255 255 255 255 255 255 255 255 255 255 255 255 255 255 255 255 0 255
255 0 255 255 255 255 255 255 255 255 255 255 255 255 255 255 255 255 0 255
255 0 255 255 255 255 255 255 255 255 255 255 255 255 255 255 255 255 0 255
255 0 255 255 255 255 255 255 255 255 255 255 255 255 255 255 255 255 0 255
255 0 255 255 255 255 255 255 255 255 255 255 255 255 255 255 255 255 0 255
255 0 255 255 255 255 255 255 255 255 255 255 255 255 255 255 255 255 0 255
255 0 255 255 255 255 255 255 255 255 255 255 255 255 255 255 255 255 0 255
255 0 255 255 255 255 255 255 255 255 255 255 255 255 255 255 255 255 0 255
255 0 0 0 0 0 0 0 0 0 0 0 0 0 0 0 0 0 0 255
255 255 255 255 255 255 255 255 255 255 255 255 255 255 255 255 255 255 255 255
